<?xml version="1.0" encoding="UTF-8" standalone="no"?>
<!-- Created with Inkscape (http://www.inkscape.org/) -->

<svg
   xmlns:dc="http://purl.org/dc/elements/1.1/"
   xmlns:cc="http://creativecommons.org/ns#"
   xmlns:rdf="http://www.w3.org/1999/02/22-rdf-syntax-ns#"
   xmlns:svg="http://www.w3.org/2000/svg"
   xmlns="http://www.w3.org/2000/svg"
   xmlns:xlink="http://www.w3.org/1999/xlink"
   xmlns:sodipodi="http://sodipodi.sourceforge.net/DTD/sodipodi-0.dtd"
   xmlns:inkscape="http://www.inkscape.org/namespaces/inkscape"
   version="1.1"
   width="256"
   height="256"
   id="svg2816"
   inkscape:version="0.48.3.1 r9886"
   sodipodi:docname="logo.svg">
  <title
     id="title3972">Stack.PY Logo</title>
  <metadata
     id="metadata41">
    <rdf:RDF>
      <cc:Work
         rdf:about="">
        <dc:format>image/svg+xml</dc:format>
        <dc:type
           rdf:resource="http://purl.org/dc/dcmitype/StillImage" />
        <dc:title>Stack.PY Logo</dc:title>
      </cc:Work>
    </rdf:RDF>
  </metadata>
  <sodipodi:namedview
     pagecolor="#ffffff"
     bordercolor="#666666"
     borderopacity="1"
     objecttolerance="10"
     gridtolerance="10"
     guidetolerance="10"
     inkscape:pageopacity="0"
     inkscape:pageshadow="2"
     inkscape:window-width="1280"
     inkscape:window-height="737"
     id="namedview39"
     showgrid="false"
     inkscape:zoom="1.3037281"
     inkscape:cx="119.6956"
     inkscape:cy="60.452474"
     inkscape:window-x="792"
     inkscape:window-y="-8"
     inkscape:window-maximized="1"
     inkscape:current-layer="svg2816" />
  <defs
     id="defs2818">
    <linearGradient
       id="linearGradient3621">
      <stop
         id="stop3623"
         style="stop-color:#000000;stop-opacity:1"
         offset="0" />
      <stop
         id="stop3629"
         style="stop-color:#000000;stop-opacity:1"
         offset="0.59631395" />
      <stop
         id="stop3631"
         style="stop-color:#ffffff;stop-opacity:1"
         offset="0.59631395" />
      <stop
         id="stop3625"
         style="stop-color:#ffffff;stop-opacity:1"
         offset="1" />
    </linearGradient>
    <linearGradient
       id="linearGradient3600">
      <stop
         id="stop3602"
         style="stop-color:#ffdba8;stop-opacity:1;"
         offset="0" />
      <stop
         id="stop3604"
         style="stop-color:#e66300;stop-opacity:1;"
         offset="1" />
    </linearGradient>
    <linearGradient
       x1="31.687914"
       y1="155.18388"
       x2="210.07913"
       y2="155.18388"
       id="linearGradient3606"
       xlink:href="#linearGradient3600"
       gradientUnits="userSpaceOnUse"
       gradientTransform="matrix(0.74961094,-0.51113972,1.0113234,1.2493562,-55.811385,-193.85975)" />
    <linearGradient
       x1="4.8546839"
       y1="-65.657417"
       x2="238.40804"
       y2="-65.657417"
       id="linearGradient3627"
       xlink:href="#linearGradient3621"
       gradientUnits="userSpaceOnUse" />
    <linearGradient
       x1="4.8546839"
       y1="-65.657417"
       x2="238.40804"
       y2="-65.657417"
       id="linearGradient3703"
       xlink:href="#linearGradient3621"
       gradientUnits="userSpaceOnUse" />
    <linearGradient
       x1="4.8546839"
       y1="-65.657417"
       x2="238.40804"
       y2="-65.657417"
       id="linearGradient3705"
       xlink:href="#linearGradient3621"
       gradientUnits="userSpaceOnUse" />
    <linearGradient
       x1="4.8546839"
       y1="-65.657417"
       x2="238.40804"
       y2="-65.657417"
       id="linearGradient3707"
       xlink:href="#linearGradient3621"
       gradientUnits="userSpaceOnUse" />
    <linearGradient
       x1="4.8546839"
       y1="-65.657417"
       x2="238.40804"
       y2="-65.657417"
       id="linearGradient3709"
       xlink:href="#linearGradient3621"
       gradientUnits="userSpaceOnUse" />
    <linearGradient
       x1="4.8546839"
       y1="-65.657417"
       x2="238.40804"
       y2="-65.657417"
       id="linearGradient3711"
       xlink:href="#linearGradient3621"
       gradientUnits="userSpaceOnUse" />
    <linearGradient
       x1="4.8546839"
       y1="-65.657417"
       x2="238.40804"
       y2="-65.657417"
       id="linearGradient3713"
       xlink:href="#linearGradient3621"
       gradientUnits="userSpaceOnUse" />
    <linearGradient
       x1="4.8546839"
       y1="-65.657417"
       x2="238.40804"
       y2="-65.657417"
       id="linearGradient3715"
       xlink:href="#linearGradient3621"
       gradientUnits="userSpaceOnUse" />
    <linearGradient
       x1="4.8546839"
       y1="-65.657417"
       x2="238.40804"
       y2="-65.657417"
       id="linearGradient3717"
       xlink:href="#linearGradient3621"
       gradientUnits="userSpaceOnUse" />
    <linearGradient
       x1="4.8546839"
       y1="-65.657417"
       x2="238.40804"
       y2="-65.657417"
       id="linearGradient3719"
       xlink:href="#linearGradient3621"
       gradientUnits="userSpaceOnUse" />
    <linearGradient
       x1="4.8546839"
       y1="-65.657417"
       x2="238.40804"
       y2="-65.657417"
       id="linearGradient3721"
       xlink:href="#linearGradient3621"
       gradientUnits="userSpaceOnUse" />
    <linearGradient
       x1="4.8546839"
       y1="-65.657417"
       x2="238.40804"
       y2="-65.657417"
       id="linearGradient3724"
       xlink:href="#linearGradient3621"
       gradientUnits="userSpaceOnUse"
       gradientTransform="translate(2.934066,0)" />
    <linearGradient
       x1="4.8546839"
       y1="-65.657417"
       x2="238.40804"
       y2="-65.657417"
       id="linearGradient3727"
       xlink:href="#linearGradient3621"
       gradientUnits="userSpaceOnUse"
       gradientTransform="translate(2.934066,0)" />
    <linearGradient
       x1="4.8546839"
       y1="-65.657417"
       x2="238.40804"
       y2="-65.657417"
       id="linearGradient3730"
       xlink:href="#linearGradient3621"
       gradientUnits="userSpaceOnUse"
       gradientTransform="translate(2.934066,0)" />
    <linearGradient
       x1="4.8546839"
       y1="-65.657417"
       x2="238.40804"
       y2="-65.657417"
       id="linearGradient3733"
       xlink:href="#linearGradient3621"
       gradientUnits="userSpaceOnUse"
       gradientTransform="translate(2.934066,0)" />
    <linearGradient
       x1="4.8546839"
       y1="-65.657417"
       x2="238.40804"
       y2="-65.657417"
       id="linearGradient3736"
       xlink:href="#linearGradient3621"
       gradientUnits="userSpaceOnUse" />
    <linearGradient
       x1="4.8546839"
       y1="-65.657417"
       x2="238.40804"
       y2="-65.657417"
       id="linearGradient3739"
       xlink:href="#linearGradient3621"
       gradientUnits="userSpaceOnUse" />
    <linearGradient
       x1="4.8546839"
       y1="-65.657417"
       x2="238.40804"
       y2="-65.657417"
       id="linearGradient3742"
       xlink:href="#linearGradient3621"
       gradientUnits="userSpaceOnUse" />
    <linearGradient
       x1="4.8546839"
       y1="-65.657417"
       x2="238.40804"
       y2="-65.657417"
       id="linearGradient3745"
       xlink:href="#linearGradient3621"
       gradientUnits="userSpaceOnUse" />
    <linearGradient
       x1="4.8546839"
       y1="-65.657417"
       x2="238.40804"
       y2="-65.657417"
       id="linearGradient3748"
       xlink:href="#linearGradient3621"
       gradientUnits="userSpaceOnUse" />
    <linearGradient
       x1="4.8546839"
       y1="-65.657417"
       x2="238.40804"
       y2="-65.657417"
       id="linearGradient3803"
       xlink:href="#linearGradient3621"
       gradientUnits="userSpaceOnUse"
       gradientTransform="translate(2.934066,0)" />
    <linearGradient
       inkscape:collect="always"
       xlink:href="#linearGradient3621"
       id="linearGradient3789"
       gradientUnits="userSpaceOnUse"
       gradientTransform="translate(-1.065934,192)"
       x1="4.8546839"
       y1="-65.657417"
       x2="238.40804"
       y2="-65.657417" />
    <linearGradient
       inkscape:collect="always"
       xlink:href="#linearGradient3600"
       id="linearGradient3792"
       gradientUnits="userSpaceOnUse"
       gradientTransform="matrix(0.74961094,-0.51113972,1.0113234,1.2493562,-55.811385,-1.85975)"
       x1="31.687914"
       y1="155.18388"
       x2="210.07913"
       y2="155.18388" />
    <linearGradient
       inkscape:collect="always"
       xlink:href="#linearGradient4671"
       id="linearGradient1475"
       gradientUnits="userSpaceOnUse"
       gradientTransform="matrix(0.562541,0,0,0.567972,168.07227,27.018382)"
       x1="150.96111"
       y1="192.35176"
       x2="112.03144"
       y2="137.27299" />
    <linearGradient
       id="linearGradient4671">
      <stop
         style="stop-color:#ffd43b;stop-opacity:1;"
         offset="0"
         id="stop4673" />
      <stop
         style="stop-color:#ffe873;stop-opacity:1"
         offset="1"
         id="stop4675" />
    </linearGradient>
    <linearGradient
       inkscape:collect="always"
       xlink:href="#linearGradient4689"
       id="linearGradient1478"
       gradientUnits="userSpaceOnUse"
       gradientTransform="matrix(0.562541,0,0,0.567972,-9.399749,-5.305317)"
       x1="26.648937"
       y1="20.603781"
       x2="135.66525"
       y2="114.39767" />
    <linearGradient
       id="linearGradient4689">
      <stop
         style="stop-color:#5a9fd4;stop-opacity:1;"
         offset="0"
         id="stop4691" />
      <stop
         style="stop-color:#306998;stop-opacity:1;"
         offset="1"
         id="stop4693" />
    </linearGradient>
    <linearGradient
       y2="114.39767"
       x2="135.66525"
       y1="20.603781"
       x1="26.648937"
       gradientTransform="matrix(0.562541,0,0,0.567972,168.07227,27.018382)"
       gradientUnits="userSpaceOnUse"
       id="linearGradient3902"
       xlink:href="#linearGradient4689"
       inkscape:collect="always" />
    <linearGradient
       inkscape:collect="always"
       xlink:href="#linearGradient4689"
       id="linearGradient3935"
       gradientUnits="userSpaceOnUse"
       gradientTransform="matrix(0.562541,0,0,0.567972,168.07227,27.018382)"
       x1="26.648937"
       y1="20.603781"
       x2="135.66525"
       y2="114.39767" />
    <linearGradient
       inkscape:collect="always"
       xlink:href="#linearGradient4671"
       id="linearGradient3937"
       gradientUnits="userSpaceOnUse"
       gradientTransform="matrix(0.562541,0,0,0.567972,168.07227,27.018382)"
       x1="150.96111"
       y1="192.35176"
       x2="112.03144"
       y2="137.27299" />
    <filter
       inkscape:collect="always"
       id="filter3968">
      <feGaussianBlur
         inkscape:collect="always"
         stdDeviation="0.86788652"
         id="feGaussianBlur3970" />
    </filter>
  </defs>
  <g
     id="g3931"
     transform="translate(-41.966102,29.830508)">
    <path
       id="path1948"
       d="m 237.98218,38.721672 c -4.58366,0.0213 -8.96094,0.412218 -12.8125,1.09375 -11.34622,2.004504 -13.40625,6.200102 -13.40625,13.9375 l 0,10.21875 26.8125,0 0,3.40625 -26.8125,0 -10.0625,0 c -7.79246,0 -14.61576,4.683717 -16.75,13.59375 -2.46182,10.212966 -2.57102,16.586023 0,27.249998 1.90592,7.93785 6.45754,13.59375 14.25,13.59375 l 9.21875,0 0,-12.25 c 0,-8.8499 7.65714,-16.656246 16.75,-16.656248 l 26.78125,0 c 7.45495,0 13.40625,-6.138164 13.40625,-13.625 l 0,-25.53125 c 0,-7.266339 -6.12998,-12.724777 -13.40625,-13.9375 -4.60599,-0.766725 -9.3851,-1.115048 -13.96875,-1.09375 z m -14.5,8.21875 c 2.76954,0 5.03125,2.298646 5.03125,5.125 -1e-5,2.816336 -2.26171,5.09375 -5.03125,5.09375 -2.77948,-10e-7 -5.03125,-2.277415 -5.03125,-5.09375 -1e-5,-2.826353 2.25177,-5.125 5.03125,-5.125 z"
       style="fill:url(#linearGradient3935);fill-opacity:1"
       inkscape:connector-curvature="0" />
    <path
       id="path1950"
       d="m 268.70093,67.377922 0,11.90625 c 0,9.230755 -7.8259,16.999999 -16.75,17 l -26.78125,0 c -7.33584,0 -13.40625,6.278488 -13.40625,13.624998 l 0,25.53125 c 0,7.26634 6.31858,11.54032 13.40625,13.625 8.48733,2.49561 16.62623,2.94663 26.78125,0 6.75015,-1.95439 13.40625,-5.88761 13.40625,-13.625 l 0,-10.21875 -26.78125,0 0,-3.40625 26.78125,0 13.40625,0 c 7.79246,0 10.69625,-5.43541 13.40624,-13.59375 2.79933,-8.398884 2.68022,-16.475774 0,-27.249998 -1.92578,-7.757441 -5.60387,-13.59375 -13.40624,-13.59375 l -10.0625,0 z m -15.0625,64.656248 c 2.77947,1e-5 5.03125,2.27742 5.03125,5.09375 -1e-5,2.82635 -2.25178,5.125 -5.03125,5.125 -2.76955,0 -5.03125,-2.29865 -5.03125,-5.125 0,-2.81633 2.26169,-5.09375 5.03125,-5.09375 z"
       style="fill:url(#linearGradient3937);fill-opacity:1"
       inkscape:connector-curvature="0" />
  </g>
  <path
     inkscape:connector-curvature="0"
     style="font-size:55.21381378px;font-style:normal;font-variant:normal;font-weight:normal;font-stretch:normal;fill:url(#linearGradient3789);fill-opacity:1;stroke:none;font-family:Candara;-inkscape-font-specification:Candara"
     id="path3694"
     d="m 138.74986,141.03571 c -1e-5,1.06043 -0.35498,1.99503 -1.06491,2.80383 -0.70996,0.8088 -1.69399,1.21319 -2.95211,1.21319 -1.06043,0 -1.8827,-0.35048 -2.46683,-1.05143 -0.58413,-0.70096 -0.8762,-1.53671 -0.87619,-2.50727 -10e-6,-1.04244 0.35946,-1.95459 1.07839,-2.73643 0.71893,-0.78183 1.71644,-1.17274 2.99255,-1.17275 1.06041,1e-5 1.8737,0.33251 2.43986,0.99751 0.56615,0.66502 0.84923,1.4828 0.84924,2.45335 z m -10.89179,3.9631 -6.33557,0 c -2e-5,-0.62906 -1.74342,-3.02849 -5.23021,-7.19828 -3.57669,-4.2956 -5.82334,-6.4434 -6.73997,-6.44341 l -0.18872,0 c -1e-5,3.84628 0.0988,8.39351 0.29656,13.64169 l -4.74494,0 c 0.23365,-6.5782 0.35048,-13.28221 0.35048,-20.11206 0,-6.95562 -0.26061,-12.89577 -0.78183,-17.82047 l 5.17629,-0.2696 c -0.19771,3.88225 -0.29657,11.42202 -0.29656,22.61933 l 0.18872,0 c 0.59311,1e-5 2.45783,-1.51423 5.59417,-4.54274 3.13632,-3.02847 4.70448,-4.85724 4.7045,-5.48633 l 5.95813,0 c -2e-5,0.57517 -1.41092,2.06694 -4.2327,4.47534 -2.64208,2.24667 -5.05948,4.09791 -7.2522,5.55373 l 0,0.21568 c 2.22867,1.6895 5.0954,4.58319 8.6002,8.68108 3.28908,3.86425 4.93363,6.09293 4.93365,6.68604 z m -28.4157,-4.12486 -0.2696,3.61263 c -1.45586,0.82676 -3.405952,1.24015 -5.850294,1.24015 -4.655083,0 -8.213782,-1.28509 -10.676108,-3.85526 -2.462339,-2.57017 -3.693505,-5.67055 -3.693502,-9.30116 -3e-6,-3.84625 1.294069,-7.15333 3.882221,-9.92123 2.588138,-2.76785 6.012038,-4.15179 10.27171,-4.15182 2.138798,3e-5 3.882203,0.21571 5.230213,0.64704 l -0.72791,4.2327 c -1.887215,-0.70094 -3.801364,-1.05141 -5.742457,-1.05144 -2.552214,3e-5 -4.583189,0.8897 -6.09293,2.66903 -1.509761,1.77937 -2.264637,4.00805 -2.264629,6.68605 -8e-6,2.91167 0.898654,5.33806 2.695987,7.27916 1.797313,1.94112 4.340524,2.91167 7.629643,2.91167 1.347974,0 3.217186,-0.3325 5.607656,-0.99752 z m -26.420673,4.12486 -4.2327,0.16176 c -0.215698,-0.88069 -0.323538,-1.71644 -0.323518,-2.50727 l -0.269599,0 c -2.210726,2.01301 -5.221242,3.01951 -9.031557,3.01951 -2.066931,0 -3.84628,-0.6066 -5.338054,-1.81979 -1.491782,-1.21319 -2.237671,-2.94312 -2.237669,-5.18978 -2e-6,-2.76787 1.168257,-4.99205 3.504783,-6.67256 2.336514,-1.68049 6.677049,-2.56567 13.021617,-2.65555 0.0539,-0.43134 0.08086,-0.92561 0.08088,-1.48279 -1.9e-5,-2.21069 -0.588642,-3.6845 -1.765872,-4.42142 -1.177263,-0.73688 -2.961106,-1.10533 -5.351534,-1.10536 -2.821809,3e-5 -5.598672,0.3505 -8.3306,1.05144 l 0.458318,-3.72046 c 2.69598,-0.77283 5.796362,-1.15925 9.301155,-1.15928 3.199222,3e-5 5.670541,0.66054 7.413965,1.98155 1.743382,1.32106 2.615084,3.57221 2.615107,6.75345 -2.3e-5,0.84476 -0.04046,2.37698 -0.121319,4.59666 -0.0809,2.2197 -0.121343,3.698 -0.12132,4.4349 -2.3e-5,3.27113 0.242616,6.18279 0.727917,8.73499 z M 68.2498,139.7686 c -0.08989,-2.73193 -0.134819,-5.18527 -0.1348,-7.36005 -3.378986,2e-5 -5.949157,0.25164 -7.710523,0.75488 -2.94762,0.89867 -4.421425,2.61512 -4.421418,5.14934 -7e-6,2.44436 1.725423,3.66654 5.176295,3.66654 2.965571,0 5.32905,-0.7369 7.090446,-2.21071 z m -20.543421,1.50975 -0.323519,3.50479 c -1.419903,0.52122 -2.758909,0.78183 -4.017021,0.78183 -3.235195,0 -5.445902,-0.82228 -6.632128,-2.46683 -1.18624,-1.64455 -1.779357,-4.58766 -1.779351,-8.82936 -6e-6,-2.74989 0.01797,-6.33555 0.05392,-10.75698 -1.006507,2e-5 -2.489298,0.0539 -4.448379,0.16176 l 0.161759,-3.90918 c 1.707456,0.10786 3.23518,0.16178 4.583178,0.16176 -6e-6,-1.07837 0.08986,-3.63956 0.269599,-7.68357 l 4.2327,-0.43136 c -0.305556,3.77441 -0.458328,6.47939 -0.458318,8.11492 1.761366,3e-5 4.349511,-0.0898 7.764442,-0.26959 l -0.188719,4.01702 c -3.235198,-0.10782 -5.83233,-0.16174 -7.791402,-0.16176 -0.03596,2.71398 -0.05393,5.76942 -0.05392,9.16635 -10e-6,3.7025 0.390908,6.15135 1.172754,7.34657 0.781825,1.19522 2.233163,1.79283 4.35402,1.79283 0.70094,0 1.734401,-0.17973 3.100385,-0.5392 z m -21.0287,-5.36501 c -2.5e-5,6.6501 -4.628132,9.97515 -13.884333,9.97515 -3.378978,0 -6.380508,-0.38643 -9.0045963,-1.15928 l 0.9435954,-4.2327 c 3.0194989,1.04246 5.8862289,1.56368 8.6001989,1.56368 6.110885,0 9.166334,-1.72543 9.166355,-5.1763 -2.1e-5,-1.74339 -0.790843,-3.23517 -2.372468,-4.47534 -1.06044,-0.82675 -3.145334,-1.93211 -6.25469,-3.31606 -3.27114,-1.45581 -5.562727,-2.79482 -6.874767,-4.01702 -1.8153018,-1.68946 -2.7229498,-3.8103 -2.7229467,-6.36253 -3.1e-6,-2.66001 0.9256182,-4.82578 2.7768667,-6.49733 2.066915,-1.86918 4.987565,-2.80379 8.761958,-2.80382 4.277613,3e-5 7.20725,0.27862 8.788917,0.83575 l -0.647037,4.28662 c -2.731953,-0.86268 -5.63463,-1.29404 -8.708038,-1.29407 -4.619133,3e-5 -6.928693,1.54573 -6.928686,4.63709 -7e-6,1.49181 0.665002,2.74095 1.99503,3.74743 0.862706,0.62908 2.767868,1.58166 5.715493,2.85774 3.360979,1.45586 5.787364,2.83979 7.279165,4.15182 2.246631,1.97707 3.369958,4.40346 3.369983,7.27917 z" />
</svg>
